<svg width="331" height="116" viewBox="0 0 331 116" fill="none" xmlns="http://www.w3.org/2000/svg">
<path d="M325.116 105.692C325.116 105.17 325.077 104.59 325 103.952C324.923 103.314 324.778 102.724 324.565 102.183C324.352 101.622 324.053 101.158 323.666 100.791C323.279 100.424 322.767 100.24 322.129 100.24C321.491 100.24 320.979 100.433 320.592 100.82C320.225 101.207 319.935 101.69 319.722 102.27C319.529 102.831 319.403 103.43 319.345 104.068C319.287 104.687 319.258 105.228 319.258 105.692C319.258 106.156 319.287 106.707 319.345 107.345C319.422 107.983 319.558 108.592 319.751 109.172C319.964 109.752 320.254 110.255 320.621 110.68C321.008 111.086 321.51 111.289 322.129 111.289C322.786 111.289 323.308 111.105 323.695 110.738C324.101 110.351 324.401 109.878 324.594 109.317C324.807 108.737 324.942 108.128 325 107.49C325.077 106.833 325.116 106.233 325.116 105.692ZM325.29 113L325.203 110.883C324.855 111.56 324.372 112.14 323.753 112.623C323.154 113.087 322.4 113.319 321.491 113.319C320.524 113.319 319.722 113.068 319.084 112.565C318.465 112.062 317.963 111.434 317.576 110.68C317.209 109.907 316.948 109.075 316.793 108.186C316.658 107.297 316.59 106.465 316.59 105.692C316.59 104.919 316.658 104.097 316.793 103.227C316.948 102.338 317.209 101.526 317.576 100.791C317.943 100.037 318.436 99.4183 319.055 98.935C319.693 98.4517 320.505 98.21 321.491 98.21C322.38 98.21 323.096 98.4323 323.637 98.877C324.198 99.3023 324.671 99.8533 325.058 100.53V92.091H327.581V108.998C327.581 109.733 327.581 110.4 327.581 110.999C327.6 111.598 327.629 112.265 327.668 113H325.29Z" fill="#0265A6"/>
<path d="M311.27 113V103.227C311.27 102.84 311.231 102.473 311.154 102.125C311.077 101.758 310.941 101.439 310.748 101.168C310.574 100.897 310.342 100.685 310.052 100.53C309.762 100.356 309.404 100.269 308.979 100.269C308.515 100.269 308.109 100.385 307.761 100.617C307.413 100.83 307.123 101.11 306.891 101.458C306.659 101.806 306.485 102.193 306.369 102.618C306.272 103.043 306.224 103.449 306.224 103.836V113H303.73V102.502C303.73 101.825 303.711 101.158 303.672 100.501C303.653 99.8437 303.633 99.1767 303.614 98.5H305.934L305.992 100.617C306.321 99.9404 306.804 99.37 307.442 98.906C308.099 98.442 308.873 98.21 309.762 98.21C310.497 98.21 311.115 98.3454 311.618 98.616C312.14 98.8867 312.556 99.2444 312.865 99.689C313.194 100.134 313.426 100.656 313.561 101.255C313.696 101.854 313.764 102.483 313.764 103.14V113H311.27Z" fill="#0265A6"/>
<path d="M297.914 113L297.856 110.912C297.527 111.589 297.044 112.159 296.406 112.623C295.768 113.087 295.004 113.319 294.115 113.319C293.38 113.319 292.752 113.184 292.23 112.913C291.727 112.642 291.321 112.285 291.012 111.84C290.702 111.376 290.48 110.844 290.345 110.245C290.209 109.646 290.142 109.017 290.142 108.36V98.5H292.636V108.273C292.636 108.66 292.674 109.037 292.752 109.404C292.829 109.752 292.955 110.061 293.129 110.332C293.303 110.603 293.535 110.825 293.825 110.999C294.115 111.154 294.472 111.231 294.898 111.231C295.362 111.231 295.768 111.125 296.116 110.912C296.464 110.68 296.744 110.39 296.957 110.042C297.189 109.694 297.353 109.307 297.45 108.882C297.566 108.457 297.624 108.051 297.624 107.664V98.5H300.118V108.998C300.118 109.675 300.127 110.342 300.147 110.999C300.185 111.656 300.214 112.323 300.234 113H297.914Z" fill="#0265A6"/>
<path d="M281.613 95.861V101.951H287.5V104.126H281.613V113H278.916V93.657H287.819V95.861H281.613Z" fill="#0265A6"/>
<path d="M270.199 94.034C269.909 93.8987 269.552 93.831 269.126 93.831C268.508 93.831 268.053 94.0244 267.763 94.411C267.493 94.7784 267.357 95.31 267.357 96.006V98.5H269.909V100.501H267.357V113H264.863V100.501H262.601V98.5H264.863V95.977C264.863 94.469 265.182 93.396 265.82 92.758C266.458 92.12 267.386 91.801 268.604 91.801C269.01 91.801 269.349 91.8397 269.619 91.917C269.909 91.975 270.161 92.0234 270.373 92.062L270.199 94.034Z" fill="#0265A6"/>
<path d="M258.902 104.706C258.902 104.261 258.863 103.778 258.786 103.256C258.728 102.715 258.602 102.212 258.409 101.748C258.216 101.284 257.945 100.897 257.597 100.588C257.268 100.259 256.843 100.095 256.321 100.095C255.799 100.095 255.354 100.25 254.987 100.559C254.639 100.868 254.349 101.255 254.117 101.719C253.904 102.164 253.75 102.657 253.653 103.198C253.556 103.739 253.508 104.242 253.508 104.706H258.902ZM253.508 106.388C253.508 106.987 253.566 107.587 253.682 108.186C253.798 108.766 254.001 109.298 254.291 109.781C254.581 110.245 254.958 110.632 255.422 110.941C255.905 111.231 256.514 111.376 257.249 111.376C257.829 111.376 258.419 111.279 259.018 111.086C259.637 110.873 260.188 110.603 260.671 110.274L260.845 112.507C260.284 112.778 259.656 112.981 258.96 113.116C258.283 113.251 257.636 113.319 257.017 113.319C255.876 113.319 254.919 113.116 254.146 112.71C253.392 112.285 252.773 111.724 252.29 111.028C251.807 110.332 251.459 109.53 251.246 108.621C251.053 107.693 250.956 106.717 250.956 105.692C250.956 104.803 251.053 103.913 251.246 103.024C251.459 102.135 251.778 101.332 252.203 100.617C252.628 99.9017 253.179 99.3217 253.856 98.877C254.533 98.4324 255.354 98.21 256.321 98.21C257.307 98.21 258.119 98.4324 258.757 98.877C259.414 99.3217 259.927 99.9017 260.294 100.617C260.681 101.313 260.951 102.096 261.106 102.966C261.261 103.817 261.338 104.648 261.338 105.46V106.388H253.508Z" fill="#0265A6"/>
<path d="M245.657 113V98.5H248.151V113H245.657ZM245.628 95.542V92.758H248.18V95.542H245.628Z" fill="#0265A6"/>
<path d="M239.547 113V92.091H242.041V113H239.547Z" fill="#0265A6"/>
<path d="M234.369 104.706C234.369 104.261 234.33 103.778 234.253 103.256C234.195 102.715 234.069 102.212 233.876 101.748C233.682 101.284 233.412 100.897 233.064 100.588C232.735 100.259 232.31 100.095 231.788 100.095C231.266 100.095 230.821 100.25 230.454 100.559C230.106 100.868 229.816 101.255 229.584 101.719C229.371 102.164 229.216 102.657 229.12 103.198C229.023 103.739 228.975 104.242 228.975 104.706H234.369ZM228.975 106.388C228.975 106.987 229.033 107.587 229.149 108.186C229.265 108.766 229.468 109.298 229.758 109.781C230.048 110.245 230.425 110.632 230.889 110.941C231.372 111.231 231.981 111.376 232.716 111.376C233.296 111.376 233.885 111.279 234.485 111.086C235.103 110.873 235.654 110.603 236.138 110.274L236.312 112.507C235.751 112.778 235.123 112.981 234.427 113.116C233.75 113.251 233.102 113.319 232.484 113.319C231.343 113.319 230.386 113.116 229.613 112.71C228.859 112.285 228.24 111.724 227.757 111.028C227.273 110.332 226.925 109.53 226.713 108.621C226.519 107.693 226.423 106.717 226.423 105.692C226.423 104.803 226.519 103.913 226.713 103.024C226.925 102.135 227.244 101.332 227.67 100.617C228.095 99.9017 228.646 99.3217 229.323 98.877C229.999 98.4324 230.821 98.21 231.788 98.21C232.774 98.21 233.586 98.4324 234.224 98.877C234.881 99.3217 235.393 99.9017 235.761 100.617C236.147 101.313 236.418 102.096 236.573 102.966C236.727 103.817 236.805 104.648 236.805 105.46V106.388H228.975Z" fill="#0265A6"/>
<path d="M221.065 98.935C221.065 97.8523 220.756 97.0693 220.137 96.586C219.538 96.0833 218.716 95.832 217.672 95.832H215.729V102.241H217.759C218.861 102.241 219.683 101.961 220.224 101.4C220.785 100.82 221.065 99.9983 221.065 98.935ZM221.993 113L219.876 106.678C219.644 105.982 219.373 105.431 219.064 105.025C218.755 104.619 218.262 104.416 217.585 104.416H215.758V113H213.09V93.657H218.455C219.228 93.657 219.934 93.773 220.572 94.005C221.229 94.2176 221.8 94.5366 222.283 94.962C222.766 95.3873 223.143 95.9093 223.414 96.528C223.685 97.1467 223.82 97.8523 223.82 98.645C223.82 99.9017 223.491 100.946 222.834 101.777C222.196 102.589 221.258 103.111 220.021 103.343C220.62 103.459 221.075 103.691 221.384 104.039C221.693 104.368 221.964 104.861 222.196 105.518L224.864 113H221.993Z" fill="#0265A6"/>
<path d="M203.506 108.998C203.506 109.675 203.39 110.284 203.158 110.825C202.926 111.347 202.597 111.801 202.172 112.188C201.766 112.555 201.282 112.836 200.722 113.029C200.161 113.222 199.552 113.319 198.895 113.319C197.464 113.319 196.101 113.087 194.806 112.623L195.038 110.274C195.598 110.583 196.178 110.835 196.778 111.028C197.377 111.202 197.986 111.289 198.605 111.289C198.875 111.289 199.146 111.241 199.417 111.144C199.707 111.047 199.958 110.912 200.171 110.738C200.403 110.564 200.586 110.351 200.722 110.1C200.857 109.849 200.925 109.568 200.925 109.259C200.925 108.756 200.77 108.341 200.461 108.012C200.171 107.683 199.803 107.384 199.359 107.113C198.933 106.842 198.46 106.581 197.938 106.33C197.416 106.079 196.932 105.779 196.488 105.431C196.062 105.064 195.695 104.638 195.386 104.155C195.096 103.652 194.951 103.024 194.951 102.27C194.951 101.593 195.086 101.004 195.357 100.501C195.647 99.9984 196.014 99.5827 196.459 99.254C196.903 98.906 197.406 98.645 197.967 98.471C198.527 98.297 199.098 98.21 199.678 98.21C200.18 98.21 200.693 98.2584 201.215 98.355C201.737 98.4517 202.249 98.5774 202.752 98.732L202.578 100.907C202.094 100.714 201.63 100.559 201.186 100.443C200.76 100.308 200.296 100.24 199.794 100.24C199.523 100.24 199.252 100.288 198.982 100.385C198.711 100.462 198.469 100.578 198.257 100.733C198.044 100.888 197.87 101.091 197.735 101.342C197.599 101.574 197.532 101.835 197.532 102.125C197.532 102.647 197.677 103.072 197.967 103.401C198.276 103.73 198.643 104.029 199.069 104.3C199.513 104.551 199.997 104.803 200.519 105.054C201.041 105.286 201.514 105.576 201.94 105.924C202.384 106.253 202.752 106.668 203.042 107.171C203.351 107.654 203.506 108.263 203.506 108.998Z" fill="#0265A6"/>
<path d="M191.251 98.964H189.221L190.758 92.091H193.339L191.251 98.964Z" fill="#0265A6"/>
<path d="M183.379 113V103.227C183.379 102.84 183.34 102.473 183.263 102.125C183.186 101.758 183.05 101.439 182.857 101.168C182.683 100.897 182.451 100.685 182.161 100.53C181.871 100.356 181.513 100.269 181.088 100.269C180.624 100.269 180.218 100.385 179.87 100.617C179.522 100.83 179.232 101.11 179 101.458C178.768 101.806 178.594 102.193 178.478 102.618C178.381 103.043 178.333 103.449 178.333 103.836V113H175.839V102.502C175.839 101.825 175.82 101.158 175.781 100.501C175.762 99.8437 175.742 99.1767 175.723 98.5H178.043L178.101 100.617C178.43 99.9404 178.913 99.37 179.551 98.906C180.208 98.442 180.982 98.21 181.871 98.21C182.606 98.21 183.224 98.3454 183.727 98.616C184.249 98.8867 184.665 99.2444 184.974 99.689C185.303 100.134 185.535 100.656 185.67 101.255C185.805 101.854 185.873 102.483 185.873 103.14V113H183.379Z" fill="#0265A6"/>
<path d="M170.66 104.706C170.66 104.261 170.622 103.778 170.544 103.256C170.486 102.715 170.361 102.212 170.167 101.748C169.974 101.284 169.703 100.897 169.355 100.588C169.027 100.259 168.601 100.095 168.079 100.095C167.557 100.095 167.113 100.25 166.745 100.559C166.397 100.868 166.107 101.255 165.875 101.719C165.663 102.164 165.508 102.657 165.411 103.198C165.315 103.739 165.266 104.242 165.266 104.706H170.66ZM165.266 106.388C165.266 106.987 165.324 107.587 165.44 108.186C165.556 108.766 165.759 109.298 166.049 109.781C166.339 110.245 166.716 110.632 167.18 110.941C167.664 111.231 168.273 111.376 169.007 111.376C169.587 111.376 170.177 111.279 170.776 111.086C171.395 110.873 171.946 110.603 172.429 110.274L172.603 112.507C172.043 112.778 171.414 112.981 170.718 113.116C170.042 113.251 169.394 113.319 168.775 113.319C167.635 113.319 166.678 113.116 165.904 112.71C165.15 112.285 164.532 111.724 164.048 111.028C163.565 110.332 163.217 109.53 163.004 108.621C162.811 107.693 162.714 106.717 162.714 105.692C162.714 104.803 162.811 103.913 163.004 103.024C163.217 102.135 163.536 101.332 163.961 100.617C164.387 99.9017 164.938 99.3217 165.614 98.877C166.291 98.4324 167.113 98.21 168.079 98.21C169.065 98.21 169.877 98.4324 170.515 98.877C171.173 99.3217 171.685 99.9017 172.052 100.617C172.439 101.313 172.71 102.096 172.864 102.966C173.019 103.817 173.096 104.648 173.096 105.46V106.388H165.266Z" fill="#0265A6"/>
<path d="M161.612 100.704C161.496 100.685 161.38 100.665 161.264 100.646C161.148 100.627 161.022 100.617 160.887 100.617C160.346 100.617 159.882 100.752 159.495 101.023C159.108 101.294 158.789 101.642 158.538 102.067C158.306 102.473 158.132 102.927 158.016 103.43C157.919 103.933 157.871 104.416 157.871 104.88V113H155.377V102.502C155.377 101.825 155.358 101.158 155.319 100.501C155.3 99.8437 155.28 99.1767 155.261 98.5H157.581L157.639 100.791C157.968 100.056 158.432 99.4474 159.031 98.964C159.63 98.4614 160.346 98.21 161.177 98.21C161.274 98.21 161.37 98.2197 161.467 98.239C161.583 98.2584 161.689 98.2777 161.786 98.297L161.612 100.704Z" fill="#0265A6"/>
<path d="M149.277 105.692C149.277 105.17 149.239 104.59 149.161 103.952C149.084 103.314 148.939 102.724 148.726 102.183C148.514 101.622 148.214 101.158 147.827 100.791C147.441 100.424 146.928 100.24 146.29 100.24C145.652 100.24 145.14 100.433 144.753 100.82C144.386 101.207 144.096 101.69 143.883 102.27C143.69 102.831 143.564 103.43 143.506 104.068C143.448 104.687 143.419 105.228 143.419 105.692C143.419 106.156 143.448 106.707 143.506 107.345C143.584 107.983 143.719 108.592 143.912 109.172C144.125 109.752 144.415 110.255 144.782 110.68C145.169 111.086 145.672 111.289 146.29 111.289C146.948 111.289 147.47 111.105 147.856 110.738C148.262 110.351 148.562 109.878 148.755 109.317C148.968 108.737 149.103 108.128 149.161 107.49C149.239 106.833 149.277 106.233 149.277 105.692ZM149.451 113L149.364 110.883C149.016 111.56 148.533 112.14 147.914 112.623C147.315 113.087 146.561 113.319 145.652 113.319C144.686 113.319 143.883 113.068 143.245 112.565C142.627 112.062 142.124 111.434 141.737 110.68C141.37 109.907 141.109 109.075 140.954 108.186C140.819 107.297 140.751 106.465 140.751 105.692C140.751 104.919 140.819 104.097 140.954 103.227C141.109 102.338 141.37 101.526 141.737 100.791C142.105 100.037 142.598 99.4183 143.216 98.935C143.854 98.4517 144.666 98.21 145.652 98.21C146.542 98.21 147.257 98.4323 147.798 98.877C148.359 99.3023 148.833 99.8533 149.219 100.53V92.091H151.742V108.998C151.742 109.733 151.742 110.4 151.742 110.999C151.762 111.598 151.791 112.265 151.829 113H149.451Z" fill="#0265A6"/>
<path d="M135.453 113V92.091H137.947V113H135.453Z" fill="#0265A6"/>
<path d="M129.343 113V98.5H131.837V113H129.343ZM129.314 95.542V92.758H131.866V95.542H129.314Z" fill="#0265A6"/>
<path d="M123.21 113V103.169C123.21 102.782 123.171 102.415 123.094 102.067C123.017 101.719 122.881 101.41 122.688 101.139C122.514 100.868 122.282 100.656 121.992 100.501C121.702 100.346 121.354 100.269 120.948 100.269C120.484 100.269 120.078 100.395 119.73 100.646C119.382 100.878 119.092 101.178 118.86 101.545C118.647 101.912 118.483 102.318 118.367 102.763C118.251 103.188 118.193 103.594 118.193 103.981V113H115.699V92.091H118.193V100.617C118.483 99.9403 118.947 99.37 119.585 98.906C120.223 98.442 120.938 98.21 121.731 98.21C122.466 98.21 123.084 98.3453 123.587 98.616C124.09 98.8673 124.496 99.2153 124.805 99.66C125.134 100.085 125.366 100.588 125.501 101.168C125.636 101.748 125.704 102.367 125.704 103.024V113H123.21Z" fill="#0265A6"/>
<path d="M113.087 112.71C112.565 112.865 112.004 113 111.405 113.116C110.806 113.251 110.11 113.319 109.317 113.319C107.925 113.319 106.707 113.058 105.663 112.536C104.638 111.995 103.778 111.27 103.082 110.361C102.405 109.452 101.893 108.399 101.545 107.2C101.216 105.982 101.052 104.696 101.052 103.343C101.052 101.932 101.245 100.617 101.632 99.399C102.019 98.181 102.57 97.1273 103.285 96.238C104.02 95.3293 104.89 94.6237 105.895 94.121C106.92 93.6183 108.07 93.367 109.346 93.367C110.158 93.367 110.864 93.4443 111.463 93.599C112.082 93.7537 112.604 93.9277 113.029 94.121L112.855 96.615C112.468 96.325 111.985 96.093 111.405 95.919C110.844 95.7257 110.235 95.629 109.578 95.629C108.592 95.629 107.732 95.8513 106.997 96.296C106.282 96.7213 105.682 97.3013 105.199 98.036C104.735 98.7513 104.387 99.573 104.155 100.501C103.942 101.429 103.836 102.386 103.836 103.372C103.836 104.339 103.942 105.286 104.155 106.214C104.387 107.123 104.735 107.935 105.199 108.65C105.682 109.365 106.282 109.945 106.997 110.39C107.712 110.815 108.563 111.028 109.549 111.028C110.342 111.028 110.989 110.931 111.492 110.738C111.995 110.545 112.468 110.342 112.913 110.129L113.087 112.71Z" fill="#0265A6"/>
<path d="M89.8035 104.706C89.8035 104.261 89.7649 103.778 89.6875 103.256C89.6295 102.715 89.5039 102.212 89.3105 101.748C89.1172 101.284 88.8465 100.897 88.4985 100.588C88.1699 100.259 87.7445 100.095 87.2225 100.095C86.7005 100.095 86.2559 100.25 85.8885 100.559C85.5405 100.868 85.2505 101.255 85.0185 101.719C84.8059 102.164 84.6512 102.657 84.5545 103.198C84.4579 103.739 84.4095 104.242 84.4095 104.706H89.8035ZM84.4095 106.388C84.4095 106.987 84.4675 107.587 84.5835 108.186C84.6995 108.766 84.9025 109.298 85.1925 109.781C85.4825 110.245 85.8595 110.632 86.3235 110.941C86.8069 111.231 87.4159 111.376 88.1505 111.376C88.7305 111.376 89.3202 111.279 89.9195 111.086C90.5382 110.873 91.0892 110.603 91.5725 110.274L91.7465 112.507C91.1859 112.778 90.5575 112.981 89.8615 113.116C89.1849 113.251 88.5372 113.319 87.9185 113.319C86.7779 113.319 85.8209 113.116 85.0475 112.71C84.2935 112.285 83.6749 111.724 83.1915 111.028C82.7082 110.332 82.3602 109.53 82.1475 108.621C81.9542 107.693 81.8575 106.717 81.8575 105.692C81.8575 104.803 81.9542 103.913 82.1475 103.024C82.3602 102.135 82.6792 101.332 83.1045 100.617C83.5299 99.9017 84.0809 99.3217 84.7575 98.877C85.4342 98.4324 86.2559 98.21 87.2225 98.21C88.2085 98.21 89.0205 98.4324 89.6585 98.877C90.3159 99.3217 90.8282 99.9017 91.1955 100.617C91.5822 101.313 91.8529 102.096 92.0075 102.966C92.1622 103.817 92.2395 104.648 92.2395 105.46V106.388H84.4095Z" fill="#0265A6"/>
<path d="M76.5376 113V103.227C76.5376 102.84 76.4989 102.473 76.4216 102.125C76.3443 101.758 76.2089 101.439 76.0156 101.168C75.8416 100.897 75.6096 100.685 75.3196 100.53C75.0296 100.356 74.6719 100.269 74.2466 100.269C73.7826 100.269 73.3766 100.385 73.0286 100.617C72.6806 100.83 72.3906 101.11 72.1586 101.458C71.9266 101.806 71.7526 102.193 71.6366 102.618C71.5399 103.043 71.4916 103.449 71.4916 103.836V113H68.9976V102.502C68.9976 101.825 68.9783 101.158 68.9396 100.501C68.9203 99.8437 68.9009 99.1767 68.8816 98.5H71.2016L71.2596 100.617C71.5883 99.9404 72.0716 99.37 72.7096 98.906C73.3669 98.442 74.1403 98.21 75.0296 98.21C75.7643 98.21 76.3829 98.3454 76.8856 98.616C77.4076 98.8867 77.8233 99.2444 78.1326 99.689C78.4613 100.134 78.6933 100.656 78.8286 101.255C78.9639 101.854 79.0316 102.483 79.0316 103.14V113H76.5376Z" fill="#0265A6"/>
<path d="M62.8873 113V98.5H65.3813V113H62.8873ZM62.8583 95.542V92.758H65.4103V95.542H62.8583Z" fill="#0265A6"/>
<path d="M60.6572 112.913C60.2899 113.048 59.9032 113.145 59.4972 113.203C59.0912 113.28 58.7046 113.319 58.3372 113.319C57.2159 113.319 56.4136 113 55.9302 112.362C55.4662 111.724 55.2342 110.883 55.2342 109.839V100.501H53.1462V98.5H55.2632V95.31L57.7282 94.498V98.5H60.5412V100.501H57.7282V109.23C57.7282 109.52 57.7379 109.791 57.7572 110.042C57.7766 110.274 57.8346 110.477 57.9312 110.651C58.0279 110.825 58.1729 110.97 58.3662 111.086C58.5596 111.183 58.8302 111.231 59.1782 111.231C59.4102 111.231 59.6326 111.192 59.8452 111.115C60.0579 111.038 60.2706 110.941 60.4832 110.825L60.6572 112.913Z" fill="#0265A6"/>
<path d="M51.9808 108.998C51.9808 109.675 51.8648 110.284 51.6328 110.825C51.4008 111.347 51.0721 111.801 50.6468 112.188C50.2408 112.555 49.7574 112.836 49.1968 113.029C48.6361 113.222 48.0271 113.319 47.3698 113.319C45.9391 113.319 44.5761 113.087 43.2808 112.623L43.5128 110.274C44.0734 110.583 44.6534 110.835 45.2528 111.028C45.8521 111.202 46.4611 111.289 47.0798 111.289C47.3504 111.289 47.6211 111.241 47.8918 111.144C48.1818 111.047 48.4331 110.912 48.6458 110.738C48.8778 110.564 49.0614 110.351 49.1968 110.1C49.3321 109.849 49.3998 109.568 49.3998 109.259C49.3998 108.756 49.2451 108.341 48.9358 108.012C48.6458 107.683 48.2784 107.384 47.8338 107.113C47.4084 106.842 46.9348 106.581 46.4128 106.33C45.8908 106.079 45.4074 105.779 44.9628 105.431C44.5374 105.064 44.1701 104.638 43.8608 104.155C43.5708 103.652 43.4258 103.024 43.4258 102.27C43.4258 101.593 43.5611 101.004 43.8318 100.501C44.1218 99.9984 44.4891 99.5827 44.9338 99.254C45.3784 98.906 45.8811 98.645 46.4418 98.471C47.0024 98.297 47.5728 98.21 48.1528 98.21C48.6554 98.21 49.1678 98.2584 49.6898 98.355C50.2118 98.4517 50.7241 98.5774 51.2268 98.732L51.0528 100.907C50.5694 100.714 50.1054 100.559 49.6608 100.443C49.2354 100.308 48.7714 100.24 48.2688 100.24C47.9981 100.24 47.7274 100.288 47.4568 100.385C47.1861 100.462 46.9444 100.578 46.7318 100.733C46.5191 100.888 46.3451 101.091 46.2098 101.342C46.0744 101.574 46.0068 101.835 46.0068 102.125C46.0068 102.647 46.1518 103.072 46.4418 103.401C46.7511 103.73 47.1184 104.029 47.5438 104.3C47.9884 104.551 48.4718 104.803 48.9938 105.054C49.5158 105.286 49.9894 105.576 50.4148 105.924C50.8594 106.253 51.2268 106.668 51.5168 107.171C51.8261 107.654 51.9808 108.263 51.9808 108.998Z" fill="#0265A6"/>
<path d="M39.0593 104.706C39.0593 104.261 39.0206 103.778 38.9433 103.256C38.8853 102.715 38.7596 102.212 38.5663 101.748C38.3729 101.284 38.1023 100.897 37.7543 100.588C37.4256 100.259 37.0003 100.095 36.4783 100.095C35.9563 100.095 35.5116 100.25 35.1443 100.559C34.7963 100.868 34.5063 101.255 34.2743 101.719C34.0616 102.164 33.9069 102.657 33.8103 103.198C33.7136 103.739 33.6653 104.242 33.6653 104.706H39.0593ZM33.6653 106.388C33.6653 106.987 33.7233 107.587 33.8393 108.186C33.9553 108.766 34.1583 109.298 34.4483 109.781C34.7383 110.245 35.1153 110.632 35.5793 110.941C36.0626 111.231 36.6716 111.376 37.4063 111.376C37.9863 111.376 38.5759 111.279 39.1753 111.086C39.7939 110.873 40.3449 110.603 40.8283 110.274L41.0023 112.507C40.4416 112.778 39.8133 112.981 39.1173 113.116C38.4406 113.251 37.7929 113.319 37.1743 113.319C36.0336 113.319 35.0766 113.116 34.3033 112.71C33.5493 112.285 32.9306 111.724 32.4473 111.028C31.9639 110.332 31.6159 109.53 31.4033 108.621C31.2099 107.693 31.1133 106.717 31.1133 105.692C31.1133 104.803 31.2099 103.913 31.4033 103.024C31.6159 102.135 31.9349 101.332 32.3603 100.617C32.7856 99.9017 33.3366 99.3217 34.0133 98.877C34.6899 98.4324 35.5116 98.21 36.4783 98.21C37.4643 98.21 38.2763 98.4324 38.9143 98.877C39.5716 99.3217 40.0839 99.9017 40.4513 100.617C40.8379 101.313 41.1086 102.096 41.2633 102.966C41.4179 103.817 41.4953 104.648 41.4953 105.46V106.388H33.6653Z" fill="#0265A6"/>
<path d="M25.8148 113V92.091H28.3088V113H25.8148Z" fill="#0265A6"/>
<path d="M19.7536 105.866H19.2896C18.7096 105.866 18.1296 105.905 17.5496 105.982C16.9696 106.04 16.438 106.185 15.9546 106.417C15.4713 106.649 15.075 106.978 14.7656 107.403C14.4756 107.809 14.3306 108.36 14.3306 109.056C14.3306 109.752 14.5433 110.313 14.9686 110.738C15.394 111.163 15.9643 111.376 16.6796 111.376C17.221 111.376 17.685 111.26 18.0716 111.028C18.4583 110.796 18.7773 110.496 19.0286 110.129C19.28 109.742 19.4636 109.317 19.5796 108.853C19.6956 108.37 19.7536 107.886 19.7536 107.403V105.866ZM19.9276 113L19.8116 110.97C19.309 111.743 18.758 112.333 18.1586 112.739C17.5786 113.126 16.8246 113.319 15.8966 113.319C15.2973 113.319 14.7463 113.213 14.2436 113C13.741 112.787 13.306 112.497 12.9386 112.13C12.5906 111.763 12.3103 111.328 12.0976 110.825C11.9043 110.303 11.8076 109.752 11.8076 109.172C11.8076 108.205 12.0203 107.403 12.4456 106.765C12.8903 106.127 13.451 105.624 14.1276 105.257C14.8043 104.87 15.5486 104.6 16.3606 104.445C17.192 104.29 18.004 104.213 18.7966 104.213H19.7536V103.343C19.7536 102.396 19.541 101.632 19.1156 101.052C18.7096 100.453 17.9653 100.153 16.8826 100.153C16.264 100.153 15.6163 100.288 14.9396 100.559C14.263 100.83 13.654 101.168 13.1126 101.574L12.9386 99.341C13.6153 99.0124 14.2823 98.7417 14.9396 98.529C15.597 98.3164 16.3606 98.21 17.2306 98.21C19.0093 98.21 20.2756 98.6547 21.0296 99.544C21.803 100.414 22.1896 101.603 22.1896 103.111V109.839C22.1896 110.438 22.1993 110.989 22.2186 111.492C22.2573 111.995 22.296 112.497 22.3346 113H19.9276Z" fill="#0265A6"/>
<path d="M8.295 99.341C8.295 98.065 7.947 97.166 7.251 96.644C6.555 96.1027 5.58833 95.832 4.351 95.832H2.988V102.879H4.67C5.888 102.879 6.79667 102.599 7.396 102.038C7.99533 101.458 8.295 100.559 8.295 99.341ZM11.05 99.341C11.05 101.158 10.5183 102.57 9.455 103.575C8.411 104.561 6.99967 105.054 5.221 105.054H3.017V113H0.348999V93.657H4.873C5.801 93.657 6.642 93.773 7.396 94.005C8.15 94.237 8.79767 94.585 9.339 95.049C9.88033 95.513 10.296 96.1027 10.586 96.818C10.8953 97.5333 11.05 98.3743 11.05 99.341Z" fill="#0265A6"/>
<path fill-rule="evenodd" clip-rule="evenodd" d="M91.8564 73.9018L88.5861 73.844L84.1681 73.1056L81.3684 72.3364L76.1128 70.1377L73.0422 68.3396L70.1387 66.1858L67.6424 63.87L65.7841 61.7921L62.8927 57.5115L61.5492 54.8237L60.3554 51.7434L59.3995 48.1883L58.7912 44.7519C58.6189 43.498 58.5787 42.4689 58.5787 39.3109C58.5787 36.3149 58.6265 34.9877 58.7861 33.5589L59.6739 28.0279L60.3863 25.2787L61.9932 20.7541L64.1347 16.5158L65.6247 14.2249L68.8468 10.3458L73.2668 6.58165L76.8814 4.40586L79.2339 3.31284L85.2009 1.39298L91.3401 0.517498C92.5274 0.434215 94.4317 0.410712 96.4466 0.454486L101.037 0.703082L103.66 1.11595L106.241 1.75325L108.725 2.7207L110.729 3.94518L112.107 5.25127L113.011 6.66545L113.569 8.30926C113.708 9.00594 113.734 9.86318 113.701 12.5066C113.659 15.8285 113.659 15.8285 113.294 16.5988C113.083 17.0432 112.703 17.5867 112.398 17.8834L111.121 18.7648C110.527 19.0565 110.188 19.1426 109.466 19.1844C108.84 19.2205 108.319 19.1769 107.788 19.0439L106.403 18.5605L105.12 17.6522L104.037 16.4315C103.756 16.0227 103.416 15.2012 102.981 13.8812L101.577 9.79092L100.604 9.30427L98.8259 8.83816C98.1498 8.71995 97.0953 8.66403 95.586 8.66632L91.9712 8.84117L89.224 9.31105L86.5273 10.0637L84.0534 11.0785L80.6682 13.0919L77.661 15.8215L75.0139 19.3942L73.2087 23.0446L71.9531 26.8824L70.8926 33.0107L70.7422 37.5927L70.8919 42.06L71.7166 46.7168L72.4745 49.2349L74.7838 54.0143L77.613 57.5604L79.5781 59.3463L81.4714 60.702L85.7809 62.7229L88.2417 63.4104L90.7063 63.7728C91.5673 63.8606 92.6391 63.8837 93.5751 63.8349L96.2102 63.5867L100.807 62.5236L104.598 61.0055L106.855 59.8394C107.531 59.4724 108.362 59.1168 108.715 59.0427C109.21 58.9391 109.542 58.941 110.184 59.0509L111.476 59.4656L112.314 60.1294L112.905 61.0842L113.195 62.2777L113.149 63.5378L112.608 65.0269C112.273 65.7135 111.956 66.1163 111.03 67.0336C110.358 67.6999 109.415 68.4826 108.782 68.9004L106.239 70.3434L103.562 71.5399L98.6272 73.0519L95.6434 73.6322C94.6727 73.7792 93.3493 73.8734 91.8564 73.9018ZM14.0553 72.4373C5.43215 72.4545 2.92207 72.4277 2.50019 72.3133L1.5054 71.8662L0.759182 71.1851L0.236036 70.2929C0.0728641 69.9338 0.00252691 69.5354 0.000762128 68.9603C-0.000993325 68.3896 0.0749726 67.9366 0.250508 67.4712C0.434759 66.9827 0.691158 66.616 1.20145 66.1114C1.63676 65.6808 2.10428 65.3424 2.44173 65.2138L5.29724 64.6394C6.88626 64.3866 7.64228 64.2192 7.71054 64.105L7.77694 37.0777C7.74393 10.2167 7.74393 10.2167 7.28493 10.1342L2.80965 9.32865C2.11216 9.11722 1.90678 8.9861 1.25001 8.33311C0.676475 7.76285 0.431358 7.41492 0.236029 6.89377C0.0278229 6.33828 -0.013506 6.03077 0.020511 5.29011C0.0466921 4.71993 0.139917 4.21599 0.267266 3.95621L0.853661 3.09354C1.06361 2.84871 1.53795 2.49534 1.90777 2.30828C2.58014 1.96821 2.58014 1.96821 16.1207 1.96821C26.2474 1.96821 30.1532 2.00621 31.6121 2.11889L37.2349 2.8999L40.1611 3.69239L43.0872 4.87658L45.5061 6.30843L47.5757 8.12242C48.1409 8.7067 48.9056 9.64403 49.2752 10.2053L50.3832 12.155L51.1739 14.1699L51.8048 16.6333L52.2019 19.3825L52.3231 22.1859L52.2013 24.9351L51.7986 27.6374L51.1166 30.2147L50.1515 32.5525L49.0456 34.4998L47.7054 36.2368L44.8086 38.9263L41.2659 41.0309L39.031 41.9574L36.948 42.6322L32.7023 43.538L28.4565 44.0064L25.6451 44.0821C24.2474 44.088 23.95 44.0554 23.3568 43.8312C22.9126 43.6633 22.4913 43.3898 22.147 43.0459L21.3376 41.9454C21.1222 41.5069 21.0471 41.1448 21.0172 40.3991C20.9858 39.617 21.0264 39.2969 21.2236 38.7723C21.3612 38.406 21.6964 37.8668 21.9867 37.5444C22.3032 37.193 22.7802 36.8342 23.2141 36.6214C23.8319 36.3181 24.1542 36.2507 25.7025 36.1001L28.8007 35.6911L31.2549 35.1125L33.3272 34.3373L36.3024 32.4501L37.6065 31.0644L38.6408 29.4607L39.7638 26.2524L40.1028 21.2696L39.8564 19.0932L39.4043 17.1695L38.7697 15.6231L37.841 14.1381L36.5094 12.7344L34.8367 11.6307L32.9976 10.8423L30.8663 10.2867L28.3122 9.92963L19.6463 9.7729C19.2701 9.872 19.2701 9.872 19.274 36.9592C19.277 58.4079 19.3075 64.0733 19.4206 64.1754L25.5334 65.3843L26.4605 66.0349L27.135 66.8567L27.6026 67.9543C27.7284 68.3859 27.7745 68.8257 27.7345 69.2124L27.4206 70.3924C27.2783 70.7227 26.9451 71.1835 26.6563 71.4491L25.6079 72.1677C25.0714 72.4153 25.0714 72.4153 14.0553 72.4373ZM197.083 64.2823V10.109L193.15 9.47829L191.575 9.02424C191.118 8.8142 190.691 8.49369 190.305 8.07184C189.985 7.72215 189.624 7.18514 189.502 6.87854C189.347 6.48488 189.282 6.03491 189.281 5.34738C189.28 4.53654 189.327 4.28121 189.563 3.8205L190.275 2.88041L191.197 2.23091C191.69 1.96821 191.69 1.96821 212.574 1.92973C227.39 1.90244 233.693 1.92792 234.263 2.01739L235.785 2.49388C236.182 2.68659 236.807 3.12309 237.176 3.46389C237.659 3.9101 237.983 4.35184 238.333 5.04239C238.815 5.99168 238.822 6.01898 238.943 7.76797C239.027 8.98072 239.031 10.2699 238.953 11.8797C238.856 13.8666 238.802 14.3074 238.596 14.7652L237.831 15.8615C237.545 16.1674 237.014 16.5675 236.65 16.7507C236.166 16.9959 235.782 17.0957 235.201 17.1284L233.764 17.0445L232.41 16.5715C231.946 16.3452 231.471 15.9779 231.026 15.5022L230.107 14.2681L228.945 10.703C228.79 10.1312 228.696 9.97281 228.467 9.89706L208.558 9.872V31.9798L217.796 32.0371C227.033 32.0943 227.033 32.0943 227.693 32.3601C228.06 32.508 228.626 32.8754 228.968 33.1881C229.307 33.4972 229.733 34.0341 229.916 34.3812C230.222 34.9657 230.246 35.1053 230.246 36.2753C230.246 37.441 230.221 37.5864 229.92 38.1603L228.999 39.3437C228.642 39.6813 228.131 40.015 227.719 40.1808C227.033 40.4563 227.033 40.4563 217.796 40.5136L208.558 40.5709V52.3569C208.558 62.7173 208.579 64.1536 208.731 64.2319L214.486 65.2525L215.571 65.8909L216.35 66.73L216.802 67.7105L216.993 68.9275L216.816 70.0812L216.353 70.9956L215.581 71.7562L214.474 72.2881C213.914 72.4543 211.996 72.4725 195.003 72.4725C178.931 72.4725 175.96 72.4473 174.844 72.3011L172.678 71.8509L169.519 70.3334L167.788 68.946L166.294 67.2857L164.961 65.3384L163.589 62.7359L159.774 53.9158L156.658 48.1883L154.172 45.0112L152.464 43.4746L150.494 42.2773L146.334 40.7802L145.082 39.904C144.634 39.4959 144.322 39.0786 144.081 38.5663C143.847 38.0668 143.717 37.5895 143.687 37.1159C143.654 36.6032 143.708 36.208 143.887 35.6713C144.023 35.265 144.311 34.7254 144.529 34.4722L145.471 33.6638L146.65 33.1404L151.101 32.5391L153.682 31.968L156.25 31.0056C156.9 30.69 157.807 30.1252 158.301 29.7278L159.798 28.2786L160.821 26.7543L161.926 23.675C162.07 23.0758 162.184 22.0923 162.225 21.1175L162.167 18.5267L161.754 16.6631L161.04 15.0729C160.801 14.6601 160.184 13.9138 159.627 13.3657C158.906 12.6539 158.387 12.2596 157.698 11.8993L155.748 11.0626L151.757 10.1613L144.57 9.81635C142.717 9.81513 142.175 9.84845 142.074 9.96999C141.979 10.0841 141.952 17.2645 141.974 37.134C142 61.0054 142.023 64.1534 142.175 64.2335L146.158 64.9158L147.743 65.3841L148.756 66.1671L149.524 67.2606C149.76 67.7407 149.806 68.0013 149.806 68.8717C149.806 69.801 149.769 69.9812 149.459 70.5866C149.226 71.0428 148.93 71.4009 148.553 71.6856C148.245 71.918 147.701 72.1901 147.343 72.2903C146.768 72.4512 145.478 72.471 136.314 72.4599L125.437 72.3492L123.776 71.4601L123.182 70.697L122.771 69.5426C122.649 68.9432 122.656 68.7374 122.826 68.0641C122.938 67.6199 123.202 67.0127 123.437 66.6587C123.681 66.292 124.092 65.8784 124.436 65.6536L125.593 65.099L130.326 64.2236C130.585 64.1154 130.585 64.1154 130.585 37.1333C130.585 15.6518 130.556 10.1405 130.441 10.099L125.216 9.10629C124.745 8.93051 124.379 8.67629 123.912 8.2017C123.476 7.75668 123.179 7.32406 123.002 6.87405C122.821 6.41387 122.737 5.95739 122.734 5.40465C122.729 4.77215 122.791 4.46768 123.026 3.9629L123.744 2.9054L124.705 2.22801C125.249 1.96821 125.249 1.96821 139.938 1.96821C153.067 1.96821 154.832 1.98934 156.576 2.16746L159.961 2.66191L164.502 3.96742L168.24 5.99683L169.851 7.34758L171.223 8.90903L172.453 10.9132L173.382 13.1469L173.957 15.5652L174.259 18.6007C174.313 19.8348 174.283 20.7165 174.151 21.8423L173.687 24.4959L172.972 26.6724L172.086 28.5434L170.099 31.373L168.625 32.84L166.731 34.2683L164.583 35.5287L159.42 37.4952L161.625 38.3904L163.117 39.2758L164.666 40.6959L166.363 42.8618L168.604 46.9283L172.969 55.9776L174.703 59.0131L176.127 60.992L177.475 62.3261L178.965 63.3063L180.478 63.8911L182.452 64.2357C183.224 64.3155 186.068 64.3463 190.371 64.3213L197.083 64.2823Z" fill="#0265A6"/>
<path d="M283.838 4.54563L279.734 1.22292L264.342 1.25196C252.486 1.27434 248.951 1.31249 248.951 1.4181L259.611 14.5038L264.622 21.2697L266.043 23.492L267.805 26.997L269.216 34.729L269.994 37.4209L271.336 29.4598L271.959 18.2857C271.958 16.5106 271.979 16.3223 272.293 15.3253C272.476 14.7397 272.744 14.1366 272.887 13.9851L273.408 13.7095C273.553 13.7095 273.862 13.877 274.097 14.0817L274.75 14.9695C274.953 15.4257 274.99 15.8667 275.077 18.8068L275.291 22.8733L275.803 26.1559C275.924 26.4471 276.033 26.5388 276.253 26.5388C276.474 26.5388 276.597 26.4342 276.768 26.0996L277.164 24.7536L277.629 20.5824L279.368 11.2133C279.473 10.8453 279.707 10.4234 279.964 10.1393L280.751 9.49857L281.404 9.3984L282.106 9.95187L282.641 10.8873C282.74 11.255 282.706 11.7109 282.463 13.2696L281.602 19.9771L281.493 23.1597L281.635 24.864L282.014 25.4706C282.226 25.6109 282.282 25.6102 282.427 25.4657L286.182 16.2295L287.915 11.1611C288.05 10.707 288.289 10.224 288.495 9.98979C288.688 9.77064 289.023 9.5424 289.24 9.4826L289.997 9.47758L290.693 9.89847L291.19 10.525L291.351 11.4466L291.069 13.1419L288.881 20.4105L286.441 27.1863C286.407 27.4443 286.463 27.6159 286.635 27.7876C286.792 27.9434 287.022 28.028 287.292 28.028C287.631 28.028 287.8 27.9364 288.19 27.5412L289.39 25.8579L295.476 15.5891L296.139 15.0742L297.924 15.1126L298.464 16.6735L297.742 19.4566L292.225 30.0899L289.962 35.5309L289.697 37.212C289.69 37.8143 289.738 38.0453 289.924 38.3001L290.609 38.8453L291.634 39.1143L292.953 38.9692L297.985 36.9892C298.469 36.8602 299.156 36.7909 299.95 36.7909C300.921 36.7909 301.273 36.8373 301.681 37.02L302.567 37.576C302.848 37.8216 302.941 37.9972 302.941 38.2822C302.941 38.5841 302.853 38.7309 302.511 39.0005L301.682 39.5796L299.808 40.191L298.774 40.7914L294.507 43.7014L290.066 47.508L288.368 48.5014L284.517 50.1685L282.802 51.1984L280.948 52.9006L278.135 56.2079L276.221 60.1248C275.262 62.0467 275.262 62.0467 275.453 63.6801L276.263 73.1599L277.427 76.8581L278.109 77.8541L278.9 78.4292C279.174 78.5193 279.416 78.5218 279.729 78.4377C279.972 78.3724 280.334 78.1504 280.532 77.9445L281.297 76.9006C281.518 76.5325 281.784 75.8624 281.89 75.4116C282.047 74.7357 282.087 73.7768 282.118 69.9525L282.279 63.5379L282.912 56.3648C283.028 55.0541 283.137 54.3744 283.263 54.1833L283.755 53.7874C283.971 53.705 284.192 53.707 284.484 53.7939C284.715 53.8625 285.058 54.0942 285.247 54.3087L285.816 55.3096L288.304 64.7825L290.766 70.637L292.441 76.3099L294.299 81.1013C294.514 81.5315 294.91 82.0985 295.176 82.3614L296.401 83.2687C296.989 83.6105 297.259 83.6982 297.717 83.6979C298.074 83.6976 298.424 83.6174 298.638 83.4871L299.423 82.7876L300.135 81.7161L300.475 80.5547L300.372 79.1736L296.786 68.177L294.549 58.3259L294.465 56.0224C294.494 55.1743 294.561 54.6872 294.666 54.5619L295.169 54.374C295.424 54.374 295.63 54.492 295.933 54.8095C296.161 55.0489 296.768 56.0411 297.282 57.0145L300.981 64.0533L305.084 70.2961C305.84 71.5247 306.976 73.5866 307.611 74.8781L309.375 78.3488C309.726 78.9936 310.223 79.7086 310.544 80.029C310.918 80.4021 311.347 80.6847 311.842 80.8825L313.069 81.1764C313.358 81.1752 313.74 81.0704 314.011 80.9171L315.017 79.9769L315.814 78.7875C315.979 78.445 316.058 78.0713 316.053 77.6329C316.049 77.209 315.908 76.5706 315.644 75.7882L314.619 73.2172L308.861 61.346L305.903 56.3214L302.847 50.2131C302.809 49.965 302.884 49.801 303.167 49.509C303.382 49.2886 303.754 49.0678 304.052 48.9845C304.441 48.8758 304.697 48.8712 305.102 48.9657L306.458 49.4302L308.122 50.3417L310.113 51.9443L323.441 63.9286C324.453 64.8774 325.171 65.4506 325.621 65.6715C326.229 65.9695 326.402 66 327.44 65.994L329.042 65.8986C329.334 65.8413 329.645 65.6595 329.92 65.3852C330.246 65.06 330.364 64.8309 330.429 64.4063L330.451 62.9216L330.145 61.3447L329.43 59.9709C329.171 59.571 328.152 58.4416 327.167 57.4612L320.649 50.8768C319.889 49.9929 318.253 48.3206 317.014 47.1607L313.247 43.3989L308.666 37.9769C308.229 37.3692 307.584 36.2689 307.233 35.5318L306.145 32.8243L305.524 30.4011L305.351 28.6381C305.35 28.0052 305.387 27.8951 305.694 27.588L306.584 27.0685L307.818 26.8211C308.273 26.7741 309.07 26.8332 310.17 26.9958L319.35 28.9667C320.204 29.1454 320.94 29.2175 321.875 29.214C322.899 29.2102 323.47 29.1416 324.425 28.9078L326.459 28.2029C326.901 27.9809 327.579 27.501 327.968 27.1365C328.672 26.4767 328.674 26.4701 328.757 25.6758L328.926 24.679C328.997 24.515 328.865 24.4121 328.169 24.0939L326.407 23.4099L322.162 22.2841L316.02 19.777L311.031 17.4951L303.36 12.9239L301.028 12.0167L290.269 8.65599L288.318 7.72653L283.838 4.54563Z" fill="#D7D7D8"/>
</svg>
